<?xml version="1.0" encoding="UTF-8"?>
<svg id="_레이어_2" data-name="레이어 2" xmlns="http://www.w3.org/2000/svg" viewBox="0 0 683.88 275.18">
  <defs>
    <style>
      .cls-1 {
        fill: #010101;
      }

      .cls-2 {
        fill: #020202;
      }

      .cls-3 {
        fill: #fcfcfc;
      }

      .cls-4 {
        fill: #fff;
      }

      .cls-5 {
        fill: #282828;
      }
    </style>
  </defs>
  <g id="_레이어_1-2" data-name="레이어 1">
    <g id="_0aYLjs.tif" data-name="0aYLjs.tif">
      <g>
        <path d="m20.21,19.07h46.47v2.97c0,11.47-.02,22.95,0,34.42,0,5.03,2.87,9.47,6.95,10.94,6.45,2.32,14.2-3.1,14.22-10.03.04-11.39,0-22.78,0-34.17,0-.91.1-1.81.16-2.72,15.06,0,30.12,0,45.18,0,.05,3.9.15,7.8.14,11.69-.04,11.79-.11,23.58-.19,35.36-.02,2.83,3.09,6.32,6.18,6.87,4.56.81,7.56-.55,9.91-4.5.13-.18.26-.36.38-.54.18-21.8.35-43.59.53-65.39,0-.99.06-1.99.09-2.98.13-.15.26-.31.4-.46.83-.05,1.65-.16,2.48-.16,16.98-.01,33.97.03,50.95-.06,2.14-.01,2.87.47,2.87,2.72-.06,58.24-.04,116.48-.05,174.71,0,3.59-.96,4.52-4.59,4.52-15.98,0-31.97-.04-47.95.04-3.17.01-4.22.23-4.21-4.17.02-12.72-.06-25.45.03-38.17.06-8.18-5.68-10.72-12.09-9-2.28.61-4.06,2.43-4.42,5.07-.17,1.23-.28,2.48-.28,3.72,0,16.14,0,32.28.02,48.42,0,.89,0,1.78,0,2.78H19.59c0-.79,0-1.52,0-2.25,0-55.74-.02-111.48-.02-167.23,0-.66.08-1.32.13-1.98.17-.14.34-.27.51-.41Zm74.49,101.54c0-4.07.12-8.15-.03-12.22-.2-5.48-2.55-9.84-7.12-13.02-3.59-2.5-7.63-2.4-11.74-2.54-7.33-.25-14.94,7.32-14.8,14.5.17,8.48-.09,16.97.07,25.45.04,2.09.57,4.43,1.64,6.2,4.4,7.27,13.18,10.51,22.08,6.93,5.57-2.24,10.29-7.96,9.93-14.57-.2-3.57-.04-7.15-.04-10.73Z"/>
        <path d="m569.24,83.41v45.67h-2.78c-14.65,0-29.31.02-43.96,0-3.93,0-7.42,1.47-8.69,5.89-1.27,4.4,2.6,9.5,6.59,9.47,10.16-.09,20.31,0,30.47.01,6.15,0,12.31,0,18.68,0v46.57h-112.42V20.2h112.01v47.67h-2.63c-14.82,0-29.64-.05-44.46.03-4.41.02-6.97,1.98-8.21,5.34-1.69,4.59,3.24,9.77,7.06,9.72,14.98-.18,29.97-.07,44.96-.07,1,0,1.99.05,2.99.08.13.14.26.29.39.43Z"/>
        <path d="m666.27,62.42c.04,12.56.08,25.12.11,37.68.01,6.23,0,12.46,0,19.04-3.39,0-6.61-.02-9.83,0-1.82.02-3.65.07-5.47.2-4.79.36-7.65,3.4-7.65,8.2-.02,17.39,0,34.78,0,52.17v1.89h-56.85V.39h56.85c0,.86,0,1.73,0,2.6-.03,17.22-.06,34.44-.08,51.67,0,2.78,3.76,6.54,6.72,6.76.58.04,1.16.06,1.74.09.61.46,1.22,1.33,1.83,1.32,4.21-.04,8.42-.25,12.63-.41Z"/>
        <path d="m230.27,101.47c-.05-.9-.11-1.55-.11-2.19,0-8.57.14-17.15-.05-25.71-.13-6.03,4.95-9.19,9.54-9.13,10.74.15,21.5.39,32.22-.05,10.49-.43,18.26-7.16,20.61-17,.51-2.13.53-4.4.53-6.6.05-13.48.02-26.95.02-40.61.67-.04,1.3-.12,1.93-.12,24.31,0,48.63.03,72.94-.06,2.31,0,2.95.59,2.93,2.92-.14,14.2-.54,28.41.01,42.59.28,7.05,4.36,12.6,10.92,16.06,3.61,1.9,7.25,2.99,11.36,2.9,6.74-.15,13.49-.1,20.23-.02,4.96.06,9.92.28,14.88.49,2.59.11,4.54,1.59,4.64,4.05.33,7.91.47,15.83.56,23.75.03,2.85-.26,5.7-.41,8.6-.62.06-.94.13-1.26.13-21.73-.03-43.47.13-65.19-.19-7.88-.11-14.12-4.25-19.09-10.32-3.69-4.51-4.61-9.93-5.52-15.42-.51-3.09-1.31-6.14-2.03-9.19-.79-3.39-4.33-5.99-8.33-5.88-4.25.11-7.07,2.32-8.08,5.81-1.43,4.92-2.44,9.97-4.08,14.81-2.8,8.3-8.53,14.18-16.53,17.54-5.08,2.14-10.5,2.98-16.15,2.91-17.9-.2-35.8-.07-53.71-.07h-2.81Z"/>
        <path d="m227.34,163.95c-.04-.68-.11-1.33-.11-1.98-.02-11.98,0-23.96-.11-35.94-.02-2,.54-2.51,2.52-2.51,68.02.05,136.04.04,204.06.05.73,0,1.46.08,2.39.13v40.26h-208.76Z"/>
        <path d="m47.2,222.56c-1.26.57-2.59,1.03-3.75,1.76-.59.38-1.17,1.27-1.17,1.92,0,.51.87,1.09,1.45,1.49,1.97,1.36,3.98,2.65,5.98,3.96.17.34.33.67.5,1.01l.37,2.04c-.11.88-.23,1.76-.34,2.63.25.02.49.04.74.06.07-.59.15-1.18.22-1.77.66-1.03,1.55-1.98,1.94-3.11,2-5.75,3.87-11.54,5.73-17.16,5.09,1.26,10.12,2.51,15.18,3.77-3.31,8.94-6.56,17.74-9.82,26.54,2.95,1.34,3.69-.61,4.28-2.17,2.63-6.94,5.12-13.93,7.68-20.89.3-.82.79-1.57,1.24-2.44h12.66c-.42-2.75,1.21-2.98,3.34-3.05,2.17-.07,4.36-.45,6.47-.99,1.89-.48,3.46-.06,5.31.34,2.53.54,5.26,1.07,8.09.31,4.25-1.14,8.67-1.67,13.28-2.51v2.96c1.01-.33,1.79-.6,2.58-.84,4.57-1.38,9.6,2.17,9.99,6.82.54,6.32-1.09,12.33-2.26,18.41-.6,3.09-1.23,6.16-1.74,9.26-.21,1.3-.38,2.2-2.09,2.32-3.62.27-7.21.84-10.89,1.29,1.52-8.92,2.93-17.22,4.34-25.52-.34-.16-.67-.33-1.01-.49-.45.6-1.2,1.15-1.32,1.81-1.24,7.25-2.36,14.52-3.59,21.77-.1.57-.7,1.43-1.17,1.5-3.83.57-7.68.98-11.85,1.48.4-2.77.77-5.53,1.22-8.28.31-1.91.81-3.79,1.12-5.7.77-4.79,1.47-9.59,2.2-14.38,0-.29.02-.58.03-.86-.18.24-.35.48-.53.72-.84,1.38-1.45,2.16-3.32.77-2.89-2.15-6.54.34-7.17,4.57-.99,6.65-1.99,13.29-3.02,19.93-.07.47-.31,1.22-.62,1.31-4.36,1.21-8.76,2.33-12.97,3.42.41-4.7.76-8.79,1.12-12.88.33-.33.67-.66,1-1,.57-3.41,1.14-6.82,1.71-10.24-.21-.06-.42-.13-.64-.19-1.19,2.92-2.43,5.83-3.57,8.77-2.07,5.29-4.94,9.97-9.79,13.16-6.98,4.58-18.53,3.12-22.6-4.26-1.51-2.73-2.15-5.71-1.23-8.85.15-.53.12-1.11-.25-1.9-.79,1.17-1.64,2.3-2.35,3.52-4.46,7.69-11.62,11.17-19.92,12.98-8.77,1.91-17.64.58-26.46.98-1.52.07-1.79-.28-1.39-2.02,1.24-5.4,2.31-10.87,2.99-16.37.65-5.32.79-10.71,1.03-16.07.06-1.31-.4-2.65-.57-3.66.41-1.19,1.01-2.2,1.07-3.23.27-4.44.31-8.9.58-13.35.11-1.8.43-3.32,3.11-3.3,7.11.07,14.23-.52,21.34-.32,4.16.12,8.38.89,12.4,1.99,5.48,1.5,8.88,5.3,9.52,11.09.12,1.09-1.11,2.43-.82,3.39.85,2.79-1.19,4.36-2.16,6.38-.48.45-.96.91-1.45,1.36Zm-26.58,10.15c-1.37-.2-1.82.46-1.95,1.85-.3,3.13-.85,6.24-1.32,9.57,3.7.31,7.08-.35,9.99-2.56,1.79-1.37,2.43-3.53,1.74-5.53m-8.39-14.67c4.37-.75,8.16-1.98,10.91-5.31,1.79-2.17,1.48-5.48-.54-5.76-2.59-.36-5.23-.45-7.86-.51-.48-.01-1.36.58-1.41.98-.44,3.37-.73,6.76-1.1,10.61Zm68.25,9.15c-.01.12-.02.25-.03.37.05-.06.13-.11.13-.18,0-.06-.06-.13-.1-.2Z"/>
        <path d="m288.02,258.11c-.27.17-.68.56-.8.48-2.23-1.4-5.23-.5-7.26-2.68-2.03-2.18-3.23-4.57-3.43-7.55-.41-6.21,1.65-12.03,2.65-18.02.29-1.76.06-3.62.48-5.33.48-2,1.42-3.9,2.12-5.85.19-.53.22-1.11.36-1.84h-7.84c.69-2.84,1.25-5.44,1.95-8,1.55-5.66,1.59-5.6,7.43-6.14.66-.06,1.63-.99,1.78-1.68.84-3.68,1.47-7.41,2.18-11.21,5.97-.68,11.84-1.34,17.9-2.03-1.11,4.7-2.17,9.19-3.32,14.05,4.29-.42,8.16-.8,12.49-1.22-.85,3.75-1.62,7.15-2.39,10.55-.11.47-.23.94-.31,1.41-.34,1.93-1.17,2.89-3.44,2.75-2.76-.17-5.56.19-8.33.43-.5.04-1.29.53-1.37.93-.54,2.52-.88,5.07-1.37,7.6-.15.75-.69,1.43-.85,2.18-.74,3.46-1.4,6.93-2.13,10.4-.21,1-.55,1.96-.8,2.95-.31,1.23-.57,2.47-.86,3.7.29.15.58.29.86.44,1.24-1.92,2.47-3.84,3.99-6.19,4.18-1.07,7.62,3.18,11.46,3.34,2.63-12.32,5.24-24.53,7.86-36.73.25-1.16.86-1.63,2.18-1.7,1.56-.08,3.5.31,4.6-1.71,3.34,2.38,7.26-.07,10.99.97-.99,4.01-2.04,8.11-3,12.22-1.79,7.73-3.66,15.44-5.2,23.22-.41,2.08.28,4.38.54,7.41,1.07-1.04,2.11-1.6,2.37-2.41,1.12-3.41,2.11-6.88,2.97-10.37,1.1-4.52,2.04-9.08,3.02-13.63,1.01-4.65,1.94-9.32,3.06-13.94.2-.83,1.16-2.09,1.79-2.11,5.52-.17,11.04-.1,16.22-.1-2.3,9.71-4.73,19.76-7.02,29.85-.73,3.2-.35,6.84-1.73,9.68-2.54,5.22-4.32,11.17-10.42,13.97-4.58,2.11-9.31,1.79-14.09,1.89-4.78.1-7.87-2.86-11.11-5.61-.25-.21-.2-.75-.33-1.13-.49-1.41-1-2.82-1.65-4.62-.88,1.62-2.05,2.53-3,3.7-3,3.69-6.78,6.57-11.58,7.67-1.5.34-3.06.41-4.6.61-1.01-.21-2.01-.43-3.02-.64Z"/>
        <path d="m444.91,202.43c-.54,3.25-1.05,6.44-1.6,9.62-.97,5.62-1.94,11.24-2.95,16.86-.64,3.55-1.29,7.11-2.05,10.64-1.73,8.05-2.98,16.23-6.86,23.66-4.1,7.85-10.82,11.42-19.4,11.93-7.04.41-13.18-1.7-17.86-7.1-1.42-1.64-2.28-3.79-3.35-5.73-.5-.9-.88-1.86-1.46-3.1,1.21-.35,2.4-.68,3.58-1.04,3.04-.94,6.04-2.05,9.12-2.78,1.7-.4,3.61-.93,4.87,1.41,1.02,1.88,2,4.11,4.71,4.39,1.8.19,3.09-.43,3.78-2.05,1.34-3.13,2.6-6.3,3.89-9.45-3.72,0-7.06-.3-10.33.07-5.59.62-11.03-4.45-11.99-8.99-.53-2.52-.94-5.12-.94-7.68,0-1.52,1.04-3,1.38-4.56,1.71-7.78,3.42-15.56,4.94-23.38.27-1.39.91-1.86,1.98-1.87,4.95-.06,9.9-.03,14.93-.03-1.52,7.15-3.14,14.66-4.7,22.17-.61,2.92-1.18,5.85-1.56,8.81-.09.73.47,1.91,1.09,2.28,1.63.97,8.1-.75,8.18-3.06.17-4.73,2.21-9.07,2.6-13.71.43-5.08,2.24-9.88,2.81-14.92.07-.58.96-1.42,1.57-1.51,3.04-.47,6.2-.38,9.14-1.16,2.33-.62,4.31,0,6.48.3Z"/>
        <path d="m558.29,234.74c-4.08-.1-4.26-.13-5.08,3.87-1.47,7.2-2.71,14.45-4.12,22.15-4.42.61-9.05,1.25-13.68,1.9-1.68.24-3.35.57-5.04.7-.31.02-1.04-.76-.98-1.05.97-4.64,2.1-9.24,3.06-13.87,1.53-7.32,2.98-14.65,4.42-21.99.33-1.66.48-3.36.74-5.23,2.53,0,5.1.13,7.65-.03,3.34-.21,6.66-.67,9.99-.95,1.01-.09,2.28-.28,1.93,1.54-.02.11,1.11.66,1.68.62.86-.06,1.77-.31,2.52-.72,4.03-2.22,7.74-.65,11.41.92,1.25.54,1.89.77,3.32-.18,4.94-3.27,10.48-4.8,16.41-3.17,4.56,1.26,6.65,4.73,6.74,9.1.12,5.95-.29,11.91-.41,17.87-.07,3.36.04,6.73-.08,10.09-.02.47-.84,1.2-1.39,1.3-3.97.76-7.95,1.4-11.94,2.04-1.52.24-3.07.44-4.6.48-.93.02-1.48-.14-1.21-1.63.95-5.28,1.59-10.62,2.21-15.95.32-2.77.47-5.57.46-8.36,0-.83-.78-1.66-1.2-2.48-1.14.71-3.04,1.22-3.29,2.17-.94,3.6-1.34,7.34-1.95,11.02-.72,4.4-1.43,8.8-2.19,13.2-.5,2.84-3.11,2.17-4.83,2.48-4.15.76-8.38,1.08-12.58,1.58-1.91.23-2.13-1.03-1.85-2.36,1.25-6.15,2.69-12.26,3.83-18.44.38-2.08.06-4.28.06-6.61Z"/>
        <path d="m185.11,249.79c-3.52.73-7.04,1.46-10.57,2.17-.71.14-1.43.18-2.47.3,1.17-8.92,2.32-17.63,3.46-26.34-.37-.13-.73-.27-1.1-.4-.6.79-1.58,1.52-1.73,2.39-.65,3.58-1.51,7.21-1.44,10.8.08,4.39-1.72,8.39-1.64,12.86-4.99,1.09-9.83,2.15-15.06,3.29.42-2.52.78-4.71,1.16-6.9.8-4.67,1.65-9.33,2.42-14,.85-5.18,1.62-10.38,2.42-15.57.05-.32.07-.65.09-.98.29-4.16.29-4.12,4.66-4.21.94-.02,1.87-.47,2.69-1.3,1.37.11,2.76.1,4.1.38,1.07.22,2.05.84,3.11,1.16.68.21,1.42.2,2.13.3,2.47.34,5.1.27,7.39,1.12,3.73,1.38,4.58,4.68,4.45,8.4-.04,1.07-.87,2.87,1.45,2.9.08.2.17.39.25.59.08-.03.16-.06.24-.09-.08-.28-.15-.56-.23-.84,6.13-11.98,16.84-16.08,29.61-17.23-.14,1.96-.18,3.7-.41,5.41-.78,6.02-1.92,12.01-2.36,18.05-.43,5.92-1.39,11.69-3.14,17.32-1.8,5.78-5.77,9.39-11.68,10.81-2.25.54-4.52,1.02-6.78,1.53l-1.49-.56c-1.84-.87-3.68-1.74-5.53-2.61-.17-.11-.35-.22-.52-.33-1.97-2.2-3.95-4.39-5.93-6.6.52-.29,1.5-.85,2.48-1.4.38-.07.76-.14,1.14-.22,1.65-.71,3.33-1.35,4.94-2.13,3.46-1.69,4.03-1.57,6.3,1.63,1.12,1.58,3.19,1.87,4.22.23,1.06-1.69,1.51-3.76,2.23-5.67-.16-.19-.31-.39-.47-.58-3.95,1.69-7.28.54-10.24-1.93-2.93-2.45-4.81-5.46-4.07-9.63-.24.02-.48.05-.72.07-.78,5.91-1.56,11.82-2.34,17.72-.33.04-.67.08-1,.12Zm21.43-27.6c-2.92,2.37-4.29,4.98-4.84,7.92-.14.73.85,1.92,1.63,2.44.34.22,2.03-.64,2.13-1.18.51-2.82.71-5.7,1.08-9.18Zm-16.6,7.71c-.04-.14-.07-.27-.1-.4-.13.06-.29.1-.36.2-.05.07.05.23.08.35.13-.05.25-.11.38-.16Z"/>
        <path d="m510.93,206.88c3.46-3.28,7.4-4.33,12.13-3.21,3.38.8,5.45,2.85,6.13,5.92.74,3.34.43,6.76-2.33,9.37-3.38,3.19-7.59,3.85-11.89,3.17-4.2-.66-6.89-4.44-7.21-9.06-5.18.4-10.35.8-15.75,1.21-1.51,7.85-3.4,15.69-4.42,23.64-.61,4.74-2.03,9.3-2.39,14.08-.24,3.25-.98,6.51-1.95,9.63-.29.91-2.09,1.79-3.28,1.92-7.39.82-14.81,1.43-22.22,2.1-.23.02-.48-.08-.97-.18.8-3.13,1.67-6.2,2.35-9.3,1.96-8.97,3.85-17.96,5.76-26.94,1-4.69,2-9.39,3.08-14.43-5.74-.38-11.4,1.41-17.16.6,1.32-3.53,2.44-6.61,3.62-9.66.51-1.32.94-1.89,2.94-1.71,4.39.39,8.87-.22,13.31-.42,2.8-.13,5.49-.74,8.4-.53,4.99.36,10.06-.1,15.07-.53,2.35-.2,4.54-.81,7.06-.46,3.02.42,6.2-.33,9.31-.57-.24,1.92-.45,3.56-.66,5.21.03.32.07.64.1.96.31-.27.62-.54.93-.81Zm-1.72,2.22c-.14-.06-.31-.2-.42-.16-.1.04-.13.26-.19.4.14.06.31.2.41.16.1-.04.13-.26.19-.4Z"/>
        <path class="cls-1" d="m247.57,258.74c-3.47-.69-7.01-1.17-10.39-2.17-1.75-.52-3.34-1.82-4.8-3.03-1.83-1.52-3.59-3.2-5.08-5.04-.46-.57-.32-2.14.14-2.86,2.68-4.19,5.55-8.27,8.51-12.63.59,1.45,2.08,1.33,3.04,2.93,2.11,3.48,5.59,6.24,10.07,6.71,2.49.26,3.98-1.23,5.85-2.92,2.23-2.02,2.87-4,2.56-6.47-.21-1.64-.83-3.61-1.97-4.69-3.13-2.99-6.7-5.5-9.95-8.38-3.39-3-7.28-5.74-8-10.72-.79-5.43-.96-10.62,2.41-15.64,3.24-4.83,7.33-8.31,12.54-10.52,5.13-2.19,10.42-2.97,16.12-2.18,4.93.68,9.4,1.96,13.44,4.88-2.04,3.87-4.04,7.69-6.09,11.49-.6,1.12-1.05,1.73-2.8.92-4.27-1.98-8.92-3.07-13.62-1.64-5.13,1.56-6.17,6.96-2.12,10.51,4.05,3.54,8.2,6.97,12.33,10.41,4.24,3.52,6.36,8.01,6.36,13.51,0,.5,0,1-.01,1.5-.56,2.76-.96,5.56-1.72,8.26-1.21,4.31-3.64,7.83-7.1,10.78-4.87,4.17-10.38,6.52-16.74,6.99-1,0-2,0-3,0Z"/>
        <path d="m380.32,208.11c1.11-9.13,3.62-17.92,4.83-27.24,5.78-.45,11.66-.9,17.66-1.36-2.83,14.42-5.57,28.47-8.35,42.51-2.14,10.82-4.31,21.64-6.53,32.45-.13.63-.83,1.6-1.33,1.64-5.48.44-10.98,1.13-16.46.97-7.14-.2-15.54-7.4-17.04-14.24-1.37-6.26-.62-12.4,1.82-18.36,1.52-3.71,3.67-6.95,6.41-9.9,3.54-3.83,8.26-4.77,12.98-5.77,1.91-.4,3.89-.46,6.01-.7Zm-2.78,15.6c-3.33.04-5.91.98-7.13,3.97-.77,1.89-1.08,3.97-1.63,5.95-.82,2.95.26,5.34,2.06,7.6,1.1,1.38,2.25,1.36,3.43.76,1.11-6.18,2.16-12.07,3.27-18.28Z"/>
        <path class="cls-1" d="m616.18,243.29c.33,1.87,1.27,2.32,2.83,2.44,5.13.4,9.59-1.9,14.28-3.29.38-.11.77-.21,1.56-.41-.41,2.8-.95,5.37-1.13,7.96-.23,3.37-2.48,4.3-5.18,5.38-3.31,1.33-6.38,3.02-10.14,2.82-8.21-.45-15.18-5.77-16.04-14.36-.4-4-.88-8.06-.55-12.03.21-2.46,1.78-4.85,2.89-7.19,2.29-4.82,6.84-7.14,11.31-9.15,3.88-1.74,8.46-2.07,12.07.42,2.28,1.57,3.97,4.48,5.09,7.14,1.1,2.6,1.19,5.64,1.62,8.51.27,1.77.31,3.58.53,5.36.17,1.41-.42,2.03-1.78,2.33-2.89.63-5.74,1.42-8.62,2.1-2.89.68-5.79,1.31-8.76,1.98Zm-.22-10.88c1.53-.26,2.95-.53,4.37-.75,1.73-.28,1.58-1.55,1.48-2.78-.1-1.22-.39-2.22-1.99-2.2-2.21.02-4.03,2.62-3.86,5.73Z"/>
        <path d="m640.21,214.9c6.52-1.12,13.19-2.26,20.07-3.43v3.45c7.84-3.85,15.6-4.47,23.59-.78-2.58,3-4.94,6.17-7.8,8.81-.85.79-3.14.33-4.68.02-4.76-.94-8.68.99-12.51,3.33-.37.23-.52.99-.57,1.52-.21,2.37-.41,4.75-.51,7.13-.21,4.95-.31,9.9-.53,14.85-.06,1.37-.38,2.72-.59,4.19-6.48,1.31-13.01,2.63-19.44,3.94,1-14.53,1.98-28.7,2.97-43.03Z"/>
        <path d="m528.75,223.34c-2.14,12.56-4.23,24.8-6.39,37.45-6.75,1.18-13.53,2.36-20.16,3.52,1.44-7.45,2.9-14.59,4.17-21.75.97-5.48,1.73-11,2.51-16.51.37-2.67,2.65-2.02,4.11-2.23,2.99-.42,6.06-.38,9.1-.46,2.05-.06,4.1-.01,6.66-.01Z"/>
        <path d="m156.28,216.73c-.92,6.22-2.19,12.17-2.55,18.17-.19,3.29-2.03,6.13-1.74,9.47.13,1.5-.9,3.1-.78,4.61.27,3.56-1.99,4.22-4.65,4.69-2.91.52-5.8,1.09-8.71,1.58-.51.09-1.08-.15-1.62-.24.13-.44.3-.87.39-1.31.68-3.39,1.4-6.77,2.01-10.18,1.19-6.6,2.33-13.2,3.49-19.81.03-.16,0-.33.02-.5.44-4.14.43-4.2,4.44-4.96,3.07-.58,6.18-.98,9.71-1.53Z"/>
        <path class="cls-2" d="m142.13,209.26c-.11-4.53,3.04-9.31,8.54-9.06,4.39.2,6.94,2.49,6.95,6.75.01,5.5-3.81,9.75-8.79,9.77-4.21.02-6.7-2.75-6.7-7.46Z"/>
        <path class="cls-4" d="m288.02,258.11c1.01.21,2.01.43,3.02.64-.48.45-.95.89-1.43,1.34-.53-.66-1.06-1.32-1.59-1.98Z"/>
        <path d="m51.21,235.66c-.07.59-.15,1.18-.22,1.77-.25-.02-.49-.04-.74-.06.11-.88.23-1.76.34-2.63.21.31.41.61.62.92Z"/>
        <path d="m47.2,222.56c.48-.45.96-.91,1.45-1.36-.48.45-.96.91-1.45,1.36Z"/>
        <path d="m86.67,242.69c-.33.33-.67.66-1,1,.33-.33.67-.66,1-1Z"/>
        <path class="cls-1" d="m194.61,261.13l1.49.56c-.5-.19-1-.37-1.49-.56Z"/>
        <path class="cls-4" d="m276.12,232.7c0-.5,0-1,.01-1.5"/>
        <path d="m50.21,232.71c-.17-.34-.33-.67-.5-1.01.17.34.33.67.5,1.01Z"/>
        <path class="cls-2" d="m510.93,206.88c-.31.27-.62.54-.93.81-.03-.32-.07-.64-.1-.96.35.05.69.1,1.04.15Z"/>
        <path d="m111.65,226.57c.18-.24.35-.48.53-.72,0,.29-.02.58-.03.86-.17-.05-.33-.1-.5-.15Z"/>
        <path class="cls-1" d="m190.86,225.79c.08.28.15.56.23.84-.08.03-.16.06-.24.09-.08-.2-.17-.39-.25-.59-.02-.19.07-.3.25-.35Z"/>
        <path class="cls-3" d="m186.25,249.97c-.38.07-.76.14-1.14.22"/>
        <path class="cls-5" d="m569.24,83.41c-.13-.14-.26-.29-.39-.43.13.14.26.29.39.43Z"/>
        <path class="cls-1" d="m188.56,258.18c.17.11.35.22.52.33-.17-.11-.35-.22-.52-.33Z"/>
        <path d="m88.94,230.51c.04.07.11.14.1.2,0,.06-.09.12-.13.18.01-.12.02-.25.03-.37Z"/>
        <path class="cls-1" d="m189.94,229.9c-.13.05-.25.11-.38.16-.03-.12-.13-.28-.08-.35.07-.1.24-.14.36-.2.03.13.07.26.1.4Z"/>
        <path class="cls-2" d="m509.22,209.1c-.06.14-.09.36-.19.4-.1.04-.27-.1-.41-.16.06-.14.09-.36.19-.4.1-.04.27.1.42.16Z"/>
      </g>
    </g>
  </g>
</svg>